<?xml version="1.0" standalone="no"?>
<!DOCTYPE svg PUBLIC "-//W3C//DTD SVG 20010904//EN"
 "http://www.w3.org/TR/2001/REC-SVG-20010904/DTD/svg10.dtd">
<svg version="1.0" xmlns="http://www.w3.org/2000/svg"
 width="1024.000000pt" height="1024.000000pt" viewBox="0 0 1024.000000 1024.000000"
 preserveAspectRatio="xMidYMid meet">

<g transform="translate(0.000000,1024.000000) scale(0.100000,-0.100000)"
fill="#000000" stroke="none">
<path d="M0 5120 l0 -5120 5120 0 5120 0 0 5120 0 5120 -5120 0 -5120 0 0
-5120z m6118 3048 c9 -9 12 -445 12 -1900 l0 -1888 -80 0 -80 0 0 238 c0 347
-13 3367 -14 3369 0 1 -233 -52 -516 -118 -283 -65 -573 -132 -645 -149 -459
-104 -662 -151 -677 -156 -17 -5 -18 -90 -18 -1595 l0 -1589 -75 0 c-61 0 -76
3 -83 18 -10 19 -16 3229 -7 3272 6 26 12 28 563 153 694 158 1270 289 1427
327 135 31 176 35 193 18z m-1433 -729 c479 -42 866 -87 891 -104 l22 -14 6
-993 c4 -546 6 -1139 4 -1318 l-3 -325 -70 -16 c-38 -9 -335 -80 -658 -158
-324 -77 -595 -141 -603 -141 -12 0 -14 227 -14 1554 l0 1554 43 -4 c23 -3
195 -18 382 -35z m-793 -3456 c85 -26 171 -122 193 -215 l7 -28 -91 0 c-73 0
-91 3 -91 15 0 8 -14 30 -31 50 -56 63 -165 71 -221 15 -63 -64 -20 -124 118
-165 182 -53 242 -86 290 -158 40 -59 46 -165 14 -231 -61 -128 -255 -190
-428 -137 -117 35 -206 133 -219 240 l-6 52 88 -3 89 -3 9 -34 c13 -51 34 -78
81 -101 135 -65 285 38 201 138 -28 34 -47 42 -168 77 -193 55 -277 134 -277
259 0 70 10 96 60 150 85 92 239 124 382 79z m970 -15 c103 -48 197 -159 222
-260 l6 -28 -90 0 -90 0 -19 38 c-42 81 -109 122 -201 122 -99 0 -179 -51
-228 -145 -23 -44 -26 -62 -26 -145 0 -80 3 -102 23 -140 53 -102 119 -144
227 -145 95 0 154 34 198 117 l31 58 88 0 89 0 -7 -32 c-12 -62 -64 -155 -111
-198 -25 -23 -75 -56 -112 -73 -63 -30 -74 -32 -178 -32 -107 0 -112 1 -185
37 -121 60 -191 142 -231 271 -27 89 -22 234 10 317 46 116 147 211 267 250
90 30 239 24 317 -12z m-1622 -65 l0 -83 -180 0 -180 0 0 -95 0 -95 165 0 165
0 0 -75 0 -75 -165 0 -165 0 0 -100 0 -100 190 0 190 0 0 -80 0 -80 -280 0
-280 0 0 435 0 435 270 -2 270 -3 0 -82z m2474 -38 c25 -66 94 -253 155 -415
60 -162 112 -303 116 -312 7 -16 -1 -18 -88 -18 l-95 0 -27 80 -27 80 -183 0
-183 0 -28 -80 -29 -80 -87 0 -87 0 30 83 c17 45 86 233 154 417 68 184 126
342 130 351 5 14 22 17 105 15 l99 -1 45 -120z m931 86 c115 -57 173 -158 162
-281 -6 -71 -34 -126 -87 -174 -68 -61 -98 -70 -260 -76 l-145 -5 -3 -147 -3
-148 -89 0 -90 0 0 434 0 435 226 -4 226 -3 63 -31z m865 -48 l0 -83 -175 0
-175 0 0 -95 0 -95 163 0 162 0 -1 -72 -1 -73 -161 -5 c-89 -3 -162 -8 -162
-12 0 -5 0 -48 0 -98 l0 -90 185 0 185 0 0 -80 0 -80 -275 0 -275 0 0 434 0
434 265 -1 265 -2 0 -82z m-2879 -1083 c243 -94 348 -393 228 -646 -31 -67
-111 -149 -175 -182 -125 -64 -280 -69 -398 -14 -275 129 -341 526 -124 743
119 119 312 160 469 99z m941 19 c133 -29 245 -118 305 -244 30 -64 36 -90 41
-163 8 -148 -28 -260 -115 -353 -173 -185 -472 -186 -645 -1 -80 85 -118 188
-118 317 0 138 50 256 143 341 106 95 247 133 389 103z m-1832 -37 c182 -95
218 -328 69 -455 -24 -21 -54 -40 -66 -43 -13 -4 -23 -9 -23 -13 0 -3 47 -78
105 -166 l104 -160 -91 -3 c-50 -1 -97 -1 -104 2 -6 2 -53 70 -104 150 l-93
146 -66 0 -66 0 3 -150 3 -150 -90 0 -91 0 0 438 0 437 232 -5 c219 -5 236 -6
278 -28z m2601 21 c4 -4 55 -118 113 -252 92 -215 106 -241 115 -220 24 61
197 465 203 474 4 6 52 9 122 7 l116 -3 0 -435 0 -434 -85 0 -85 0 -2 304 -3
305 -109 -255 -109 -254 -61 0 -61 0 -110 255 -110 256 -3 -306 -2 -305 -80 0
-80 0 0 438 0 437 111 -2 c62 -1 116 -6 120 -10z"/>
<path d="M5288 6115 c-94 -51 -104 -246 -17 -320 61 -50 151 -20 185 62 18 43
18 152 -1 196 -29 70 -102 97 -167 62z"/>
<path d="M4830 5680 c0 -5 5 -10 10 -10 6 0 10 5 10 10 0 6 -4 10 -10 10 -5 0
-10 -4 -10 -10z"/>
<path d="M5556 3769 c-55 -151 -116 -323 -116 -328 0 -3 56 -5 124 -3 l125 3
-56 162 c-58 167 -69 190 -77 166z"/>
<path d="M6310 3695 l0 -125 106 0 c120 0 166 15 189 61 19 36 19 92 0 129
-25 49 -60 60 -185 60 l-110 0 0 -125z"/>
<path d="M4421 2679 c-85 -16 -168 -95 -193 -183 -19 -67 -13 -176 11 -232 46
-102 126 -158 231 -158 105 0 185 55 231 159 32 71 31 189 0 262 -50 113 -162
174 -280 152z"/>
<path d="M5375 2661 c-90 -42 -142 -124 -152 -239 -15 -182 94 -316 256 -316
104 1 184 53 233 153 32 67 32 196 -1 268 -26 58 -84 117 -137 139 -48 20
-150 18 -199 -5z"/>
<path d="M3405 2545 l0 -125 111 0 c99 0 115 2 145 23 19 13 40 39 48 61 20
52 0 111 -48 143 -30 21 -46 23 -145 23 l-111 0 0 -125z"/>
</g>
</svg>
